<?xml version="1.0" standalone="no"?>
<!DOCTYPE svg PUBLIC "-//W3C//DTD SVG 20010904//EN"
 "http://www.w3.org/TR/2001/REC-SVG-20010904/DTD/svg10.dtd">
<svg version="1.0" xmlns="http://www.w3.org/2000/svg"
 width="500.000000pt" height="500.000000pt" viewBox="0 0 500.000000 500.000000"
 preserveAspectRatio="xMidYMid meet">

<g transform="translate(0.000000,500.000000) scale(0.100000,-0.100000)"
fill="#000000" stroke="none">
<path d="M2307 4010 c-583 -92 -1068 -495 -1250 -1041 -63 -188 -72 -250 -72
-489 0 -236 9 -304 66 -480 176 -547 645 -955 1210 -1051 107 -18 150 -21 309
-16 267 8 431 48 648 159 433 221 729 609 829 1088 28 131 25 470 -5 603 -71
320 -202 559 -431 788 -223 222 -449 346 -771 420 -76 18 -132 22 -285 25
-104 1 -216 -1 -248 -6z m429 -255 c487 -83 888 -433 1029 -898 81 -268 75
-557 -15 -812 -186 -521 -673 -867 -1225 -867 -360 0 -687 140 -938 401 -179
188 -298 422 -341 670 -21 123 -21 352 0 461 74 394 332 738 689 920 107 54
256 105 370 124 109 19 322 19 431 1z"/>
<path d="M2480 3700 l-44 -5 32 -27 c17 -14 45 -29 61 -33 21 -4 42 -22 67
-58 53 -73 159 -203 217 -264 l49 -52 52 6 c28 3 57 10 64 16 6 5 12 6 12 2 0
-4 7 -2 15 5 11 9 20 8 44 -6 16 -10 28 -21 25 -26 -3 -4 1 -8 8 -8 8 0 38
-25 68 -55 30 -30 61 -55 70 -55 16 0 150 -128 150 -143 0 -5 -21 10 -47 31
-36 30 -57 40 -83 40 -19 0 -65 4 -103 10 -55 8 -72 16 -96 41 -16 17 -32 31
-36 31 -5 0 5 -12 21 -27 l29 -27 -44 -19 -43 -19 -29 28 c-16 15 -31 25 -34
22 -4 -3 5 -15 19 -26 15 -11 26 -22 26 -25 0 -8 -70 -47 -84 -47 -7 0 -21 9
-31 20 -10 11 -23 20 -28 20 -6 0 1 -13 16 -28 l27 -28 -37 -32 c-44 -38 -44
-38 -63 -12 -8 11 -21 20 -30 20 -10 -1 -4 -10 17 -28 l31 -27 -25 -30 c-20
-24 -23 -26 -19 -9 7 23 -14 39 -45 35 -14 -1 -49 37 -49 54 0 14 31 3 40 -15
6 -11 16 -18 21 -14 6 4 2 15 -12 30 -12 13 -26 21 -31 18 -5 -3 -15 0 -23 6
-12 10 -19 10 -32 -1 -13 -11 -17 -11 -20 -1 -3 6 -14 12 -25 12 -11 0 -47 14
-80 30 -63 32 -85 34 -106 10 -12 -13 -13 -13 -8 4 5 14 3 16 -6 9 -17 -13
-60 -24 -53 -13 2 4 -20 10 -51 14 -69 8 -96 23 -83 48 7 13 4 23 -11 38 -11
11 -25 20 -31 20 -5 0 -29 9 -52 19 -39 18 -65 22 -203 36 -22 2 -52 8 -65 14
-30 11 -82 -8 -97 -35 -10 -18 -11 -18 -31 0 -23 21 -28 64 -8 88 6 8 26 24
43 36 22 15 35 35 42 64 6 23 9 44 7 47 -6 5 -97 -79 -150 -139 -317 -357
-397 -866 -206 -1309 73 -171 231 -374 371 -478 l55 -41 90 9 c50 6 118 17
153 25 96 21 93 25 59 -77 -19 -57 -26 -94 -20 -100 16 -16 204 -59 308 -70
209 -22 465 26 656 121 143 72 335 223 323 254 -4 12 -2 15 9 10 8 -3 18 0 22
6 4 6 -13 19 -42 31 -26 12 -56 31 -65 43 -19 23 -24 41 -9 32 5 -4 11 -1 13
6 3 9 12 8 33 -6 l28 -18 -7 23 c-4 13 -11 47 -16 76 -5 29 -14 61 -19 72 -20
36 -11 45 17 18 27 -26 45 -74 72 -200 8 -32 17 -54 21 -50 5 5 4 26 -2 47
-13 48 -4 59 14 16 8 -18 17 -28 21 -22 7 12 -11 58 -32 85 -10 11 -11 17 -4
17 7 0 12 -4 12 -10 0 -5 6 -10 13 -10 7 0 19 -11 27 -24 l15 -25 33 50 32 49
-39 -6 c-34 -5 -40 -3 -45 14 -8 24 18 55 49 60 11 2 22 6 25 9 3 3 -5 3 -17
0 -14 -3 -23 -1 -23 6 0 6 -7 1 -16 -11 -20 -29 -36 -28 -57 6 -35 57 -34 57
-50 44 -11 -10 -17 -9 -28 4 -11 13 -11 17 3 25 9 5 30 33 46 63 32 60 29 76
-18 101 -25 13 -29 13 -24 1 4 -10 -6 -20 -28 -31 -63 -30 -78 -40 -78 -48 0
-17 33 -70 68 -109 21 -23 28 -36 17 -30 -42 24 -65 49 -84 92 l-20 45 0 -32
c-1 -18 -6 -33 -12 -33 -6 0 -9 7 -5 15 3 8 1 25 -4 37 -5 14 -9 17 -10 8 0
-9 -7 -3 -16 13 -27 50 -24 24 7 -67 17 -48 28 -91 24 -94 -11 -11 -135 126
-135 148 0 25 12 25 35 0 26 -29 28 -19 5 31 -11 24 -20 55 -20 69 0 23 2 22
27 -13 29 -41 46 -43 19 -3 -20 31 -21 47 -2 40 8 -3 20 -19 26 -35 7 -16 15
-28 17 -25 2 2 -3 21 -12 41 -8 21 -13 40 -10 43 3 3 14 -17 25 -44 29 -68 42
-94 35 -71 -3 11 -8 31 -11 45 l-5 27 15 -25 15 -25 -2 30 c-1 21 -10 34 -31
45 -16 8 -40 35 -54 59 l-26 44 57 -5 c31 -2 54 -1 51 4 -3 4 -30 8 -60 8 -31
0 -65 5 -77 11 -20 10 -19 9 4 -17 28 -31 49 -66 49 -83 0 -18 -48 -12 -59 7
-9 15 -12 15 -21 2 -8 -13 -10 -13 -10 1 0 11 -9 17 -25 17 -14 0 -25 -5 -25
-11 0 -6 -2 -8 -5 -5 -12 12 8 58 25 58 10 0 20 6 23 14 10 24 -47 2 -60 -23
-11 -23 -11 -23 -22 -3 -6 11 -11 27 -11 36 0 8 -10 31 -21 51 -12 20 -18 39
-14 43 8 8 52 -43 61 -70 7 -23 28 -23 21 0 -3 9 -15 42 -27 72 -16 43 -20 47
-15 20 l5 -35 -29 35 c-35 40 -39 65 -13 79 14 9 12 10 -14 11 -17 0 -37 7
-44 15 -11 13 -7 15 26 15 l39 1 -54 18 c-56 20 -73 35 -64 58 4 11 18 13 57
9 l51 -6 -50 15 c-72 20 -92 34 -106 69 -7 17 -15 35 -17 40 -3 5 0 6 7 2 6
-4 11 -1 11 8 0 9 -4 16 -10 16 -5 0 -10 23 -10 50 0 47 4 55 47 101 26 28 64
59 84 70 21 10 39 23 41 29 1 5 31 13 64 16 57 6 67 4 140 -31 l78 -38 21 27
20 26 14 -22 c11 -17 11 -22 -1 -29 -7 -5 -19 -9 -25 -9 -27 0 -10 -19 50 -55
64 -39 285 -182 372 -242 46 -31 50 -32 53 -14 5 30 -34 183 -68 269 -135 340
-431 613 -785 725 -108 34 -310 58 -405 47z m-735 -580 c1 -44 15 -138 26
-167 5 -15 4 -23 -7 -27 -8 -3 -14 0 -14 8 0 28 -27 39 -59 25 -16 -7 -27 -17
-25 -21 3 -5 10 -6 15 -3 5 4 9 -5 9 -19 0 -28 25 -57 43 -50 9 3 13 -10 14
-46 0 -28 -3 -50 -9 -50 -6 0 -8 -6 -5 -13 3 -7 -2 -24 -10 -38 l-14 -24 6 28
c3 17 2 26 -4 23 -5 -3 -11 -3 -14 1 -2 5 -2 2 -1 -4 8 -31 -8 -43 -58 -43
-42 0 -49 2 -44 18 3 9 17 68 31 131 28 125 32 134 46 126 15 -10 22 25 10 51
-11 24 -9 39 15 122 2 7 14 12 26 10 19 -2 23 -9 23 -38z m-65 -116 c0 -8 -5
-12 -10 -9 -6 4 -8 11 -5 16 9 14 15 11 15 -7z m1677 -32 c9 -6 4 -13 -17 -26
l-30 -17 0 25 c0 27 21 34 47 18z m-742 -51 c-8 -8 -35 22 -35 38 0 12 5 10
20 -9 10 -14 17 -27 15 -29z m-885 -1 c0 -25 -18 -36 -26 -16 -8 21 3 49 16
41 5 -3 10 -15 10 -25z m635 -40 c6 -10 -96 -50 -107 -43 -16 9 -7 23 29 41
35 18 68 19 78 2z m345 -63 c0 -6 -11 0 -25 13 -14 13 -25 28 -25 33 0 6 11 0
25 -13 14 -13 25 -28 25 -33z m-595 -37 c-10 -11 -22 -17 -27 -14 -5 3 -1 12
9 20 27 20 39 17 18 -6z m1315 -675 c11 -13 7 -15 -22 -15 -20 0 -46 -9 -61
-20 -30 -24 -43 -25 -51 -5 -3 8 -2 15 3 15 4 0 18 9 31 20 27 24 82 26 100 5z
m-33 -40 c21 -21 10 -30 -18 -15 -20 11 -21 10 -17 -14 6 -31 -8 -35 -18 -4
-4 15 -1 25 12 35 22 16 22 16 41 -2z m-93 -130 c17 -27 21 -55 7 -55 -5 0
-12 -16 -16 -37 l-6 -36 -26 26 c-27 27 -26 61 2 51 18 -7 18 -8 6 33 -14 48
6 60 33 18z m138 -12 c19 -22 59 -105 54 -110 -2 -3 -17 2 -34 11 -16 8 -32
13 -35 9 -6 -5 -11 11 -21 75 -6 37 11 44 36 15z m-98 -119 c9 -24 7 -28 -9
-14 -17 14 -20 30 -6 30 5 0 12 -7 15 -16z"/>
<path d="M2090 3610 c0 -6 -4 -8 -10 -5 -6 4 -7 -1 -3 -11 5 -14 1 -16 -31
-12 -55 6 -38 -13 35 -40 102 -37 99 -36 99 -16 -1 20 -90 103 -90 84z"/>
<path d="M1945 3559 c-15 -6 -11 -8 18 -8 20 -1 37 1 37 3 0 9 -37 12 -55 5z"/>
<path d="M1863 3512 c-24 -15 -43 -33 -43 -41 0 -8 6 -6 18 7 18 22 70 38 115
37 33 -1 36 10 5 19 -38 10 -51 7 -95 -22z"/>
<path d="M2034 3495 c11 -8 31 -15 45 -14 26 1 23 3 -34 20 -28 8 -29 8 -11
-6z"/>
<path d="M2141 3453 c8 -10 9 -14 2 -10 -6 4 -15 2 -18 -4 -13 -19 5 -22 25
-4 16 14 17 20 8 27 -22 13 -31 9 -17 -9z"/>
<path d="M2005 3451 c-7 -12 1 -17 43 -26 33 -7 41 2 20 23 -14 14 -54 16 -63
3z"/>
<path d="M1820 3426 c0 -2 8 -10 18 -17 15 -13 16 -12 3 4 -13 16 -21 21 -21
13z"/>
<path d="M1910 3419 c0 -6 4 -7 10 -4 6 4 9 -3 7 -16 -2 -21 1 -23 43 -20 25
1 47 5 49 7 2 2 -7 12 -19 22 -25 20 -90 28 -90 11z"/>
<path d="M2870 3246 c0 -2 7 -7 16 -10 8 -3 12 -2 9 4 -6 10 -25 14 -25 6z"/>
<path d="M2795 3190 c3 -5 11 -10 16 -10 6 0 7 5 4 10 -3 6 -11 10 -16 10 -6
0 -7 -4 -4 -10z"/>
<path d="M2791 3143 c0 -11 59 -56 59 -46 0 5 -13 19 -30 31 -16 13 -30 19
-29 15z"/>
<path d="M2716 3125 c4 -8 11 -15 16 -15 6 0 5 6 -2 15 -7 8 -14 15 -16 15 -2
0 -1 -7 2 -15z"/>
<path d="M2710 3073 c0 -5 11 -20 25 -33 14 -13 25 -19 25 -13 0 5 -11 20 -25
33 -14 13 -25 19 -25 13z"/>
<path d="M2640 3046 c0 -2 8 -10 18 -17 15 -13 16 -12 3 4 -13 16 -21 21 -21
13z"/>
<path d="M2980 2550 c-12 -8 -10 -10 8 -10 13 0 20 4 17 10 -7 12 -6 12 -25 0z"/>
<path d="M3027 2529 c7 -7 15 -10 18 -7 3 3 -2 9 -12 12 -14 6 -15 5 -6 -5z"/>
<path d="M3123 2383 c9 -2 25 -2 35 0 9 3 1 5 -18 5 -19 0 -27 -2 -17 -5z"/>
<path d="M3216 2105 c4 -8 8 -15 10 -15 2 0 4 7 4 15 0 8 -4 15 -10 15 -5 0
-7 -7 -4 -15z"/>
</g>
</svg>
